<?xml version="1.0" encoding="UTF-8"?>
<svg color-interpolation-filters="sRGB" version="1.0" viewBox="0 0 340 250" xmlns="http://www.w3.org/2000/svg" width="70px" height="24px">
<rect class="background" width="100%" height="100%" fill="transparent" />
<g class="basesvg" transform="translate(57.05 95.99)" fill="#333" >
<g class="tp-name" fill-rule="" data-gra="path-name">
<g transform="scale(1)">
<path transform="translate(-1.14 45.12)" d="m27-1.74v1.74h-16.86v-1.74q1.32-0.48 2.67-0.84t2.91-0.6v-35.7h-9.18l-3.18 8.58h-1.5q-0.18-1.2-0.3-2.73t-0.21-3.12-0.15-3.12-0.06-2.73h34.86q0 1.2-0.06 2.7t-0.15 3.09-0.18 3.12-0.27 2.79h-1.56l-3.12-8.58h-9.18v35.7q1.56 0.3 2.91 0.6t2.61 0.84zm30.96-23.76h-7.98q-0.66 0.36-1.65 1.47t-1.77 3.27v17.82q1.2 0.12 2.4 0.45t2.4 0.99v1.5h-14.16v-1.5q1.08-0.6 2.04-0.9t1.92-0.54v-23.58l-3.96-0.48v-1.56q1.92-0.84 3.96-1.35t3.9-0.81h1.5v6.36h0.24q0.54-1.2 1.53-2.4t2.28-2.16 2.82-1.47 3.15-0.33q0.42 0.78 0.75 1.71t0.63 1.95v1.56zm26.34 20.34 0.84 0.96q-0.48 1.02-1.5 1.92t-2.34 1.56-2.88 1.05-3.18 0.39q-3.54 0-6.24-1.11t-4.5-3.18-2.73-4.95-0.93-6.48q0-7.68 3.54-11.7t10.02-4.02q2.1 0 4.14 0.57t3.63 1.89 2.58 3.51 0.99 5.43q0 1.02-0.09 2.07t-0.33 2.25h-18.72q0 2.52 0.63 4.71t1.89 3.81 3.18 2.55 4.5 0.93q2.1 0 4.26-0.6t3.24-1.56zm-10.14-22.92q-3.42 0-5.22 2.31t-2.16 8.13h13.2q0.06-0.54 0.09-1.05t0.03-0.99q0-3.84-1.44-6.12t-4.5-2.28zm49.02 26.58v1.5h-12.9v-1.5q1.62-0.84 3.54-1.44v-14.22q0-4.56-1.32-7.2t-4.8-2.64q-1.5 0-2.79 0.54t-2.28 1.47-1.71 2.1-1.14 2.43v17.52q1.86 0.36 3.6 1.44v1.5h-12.96v-1.5q1.5-0.78 3.96-1.44v-23.58l-3.96-0.48v-1.56q1.56-0.66 3.6-1.2t4.26-0.96h1.5v6.72h0.06q1.26-2.76 3.63-4.74t5.73-1.98q2.4 0 4.29 0.57t3.15 2.01 1.92 3.87 0.66 6.15v15.18q2.4 0.42 3.96 1.44zm23.64-4.44h-0.24q-0.3 1.32-1.02 2.52t-1.77 2.13-2.4 1.47-2.91 0.54q-5.94 0-8.88-3.78t-2.94-11.76q0-7.68 3.75-11.7t10.11-4.02q2.22 0 3.48 0.21t2.76 0.75v-11.34l-4.56-0.48v-1.56q1.74-0.72 4.05-1.26t4.41-0.9h1.5v41.7l3.96 0.48v1.26q-1.74 0.84-3.6 1.44t-3.66 0.84h-1.5l-0.54-6.54zm-7.14 2.94q2.94 0 4.68-1.86t2.4-5.04v-16.92q-1.02-0.6-2.4-0.84t-3.54-0.24q-4.08 0-6.24 3.57t-2.16 9.51q0 2.46 0.42 4.59t1.32 3.75 2.25 2.55 3.27 0.93zm33.6 1.5v1.5h-13.32v-1.5q0.9-0.48 1.86-0.81t2.1-0.63v-23.58l-3.96-0.48v-1.56q1.74-0.72 3.78-1.26t4.08-0.9h1.5v27.78q1.2 0.3 2.16 0.63t1.8 0.81zm-10.5-38.7q0-1.62 1.05-2.58t2.79-0.96 2.76 0.96 1.02 2.58-1.02 2.55-2.76 0.93-2.79-0.93-1.05-2.55zm31.14-4.92q0.54 0 1.26 0.06t1.5 0.15 1.5 0.24 1.26 0.33q-0.18 1.98-0.51 3.69t-0.81 3.09h-1.5l-2.64-5.16q-1.74 0-2.97 0.36t-2.04 1.38-1.2 2.94-0.39 5.04v3h6.9v3h-6.9v24.06q3.12 0.36 5.76 1.44v1.5h-15.12v-1.5q1.86-1.08 3.96-1.44v-24.06h-4.56v-1.56q2.1-1.32 4.56-1.98v-2.1q0-3.72 0.9-6.15t2.52-3.84 3.81-1.95 4.71-0.54zm17.16 45.12-12.48-27q-0.9-0.24-1.65-0.6t-1.53-0.84v-1.56h12.54v1.5q-1.26 0.84-3.42 1.5l7.68 17.76 1.14 3.72h0.12l0.9-3.78 5.7-17.7q-1.8-0.36-3.3-1.44v-1.56h10.26v1.56q-1.26 0.84-3.42 1.44l-9.36 27q-1.44 3.84-2.73 6.21t-2.58 3.75-2.64 2.01-2.91 0.93q-0.66-1.14-1.17-2.52t-0.87-2.64l0.78-1.44h6.24q0.36-0.48 0.63-0.93t0.57-1.11 0.66-1.68 0.84-2.58z"/>
</g>
</g>
</g>
</svg>
